HIERARCHY
ROOT Hips
{
  OFFSET 0 89.5177 0.535
  CHANNELS 6 Xposition Yposition Zposition Zrotation Xrotation Yrotation
  JOINT Spine
  {
    OFFSET 12.0259 -0.162855 1.69034e-005
    CHANNELS 3 Zrotation Xrotation Yrotation
    JOINT Spine1
    {
      OFFSET 15.3169 -0.0121922 0
      CHANNELS 3 Zrotation Xrotation Yrotation
      JOINT Spine2
      {
        OFFSET 15.3176 -0.0121908 0
        CHANNELS 3 Zrotation Xrotation Yrotation
        JOINT Neck
        {
          OFFSET 19.9142 1.56338 0
          CHANNELS 3 Zrotation Xrotation Yrotation
          JOINT Head
          {
            OFFSET 6.92651 0 0
            CHANNELS 3 Zrotation Xrotation Yrotation
            End Site
            {
              OFFSET 20.7666 0 0
            }
          }
          JOINT LeftShoulder
          {
            OFFSET -6.20654 0.708824 7.28219
            CHANNELS 3 Zrotation Xrotation Yrotation
            JOINT LeftArm
            {
              OFFSET 14.108 0 -1.52588e-005
              CHANNELS 3 Zrotation Xrotation Yrotation
              JOINT LeftForeArm
              {
                OFFSET 28.5802 0 0
                CHANNELS 3 Zrotation Xrotation Yrotation
                JOINT LeftHand
                {
                  OFFSET 27.092 0 0
                  CHANNELS 3 Zrotation Xrotation Yrotation
                  End Site
                  {
                    OFFSET 9.55928 -0.186424 0.145352
                  }
                }
              }
            }
          }
          JOINT RightShoulder
          {
            OFFSET -6.20654 0.708866 -7.28218
            CHANNELS 3 Zrotation Xrotation Yrotation
            JOINT RightArm
            {
              OFFSET 14.108 0 1.52588e-005
              CHANNELS 3 Zrotation Xrotation Yrotation
              JOINT RightForeArm
              {
                OFFSET 28.5802 0 0
                CHANNELS 3 Zrotation Xrotation Yrotation
                JOINT RightHand
                {
                  OFFSET 27.092 0 0
                  CHANNELS 3 Zrotation Xrotation Yrotation
                  End Site
                  {
                    OFFSET 9.55929 -0.186417 -0.145354
                  }
                }
              }
            }
          }
        }
      }
    }
  }
  JOINT LeftUpLeg
  {
    OFFSET 0.005 -0.535 8.837
    CHANNELS 3 Zrotation Xrotation Yrotation
    JOINT LeftLeg
    {
      OFFSET 39.9035 0 0
      CHANNELS 3 Zrotation Xrotation Yrotation
      JOINT LeftFoot
      {
        OFFSET 39.6689 0 0
        CHANNELS 3 Zrotation Xrotation Yrotation
        JOINT LeftToe
        {
          OFFSET 10.1624 13.6296 0
          CHANNELS 3 Zrotation Xrotation Yrotation
          End Site
          {
            OFFSET 8.38147 0 0
          }
        }
      }
    }
  }
  JOINT RightUpLeg
  {
    OFFSET 0.005 -0.535 -8.837
    CHANNELS 3 Zrotation Xrotation Yrotation
    JOINT RightLeg
    {
      OFFSET 39.9035 0 0
      CHANNELS 3 Zrotation Xrotation Yrotation
      JOINT RightFoot
      {
        OFFSET 39.6689 0 0
        CHANNELS 3 Zrotation Xrotation Yrotation
        JOINT RightToe
        {
          OFFSET 10.1624 13.6296 0
          CHANNELS 3 Zrotation Xrotation Yrotation
          End Site
          {
            OFFSET 8.38147 0 0
          }
        }
      }
    }
  }
}
MOTION
Frames:	7
Frame Time:	0.0333333
368.498 133.967 100.55 96.4094 3.41094 -0.689429 -2.6686 -3.10904 -0.734307 -5.38872 -6.17969 -1.61636 -5.38872 -6.17969 -1.61637 -8.30589e-012 -9.0191e-006 -5.27751e-005 18.5061 -20.0915 7.559 -178.929 8.05792 -97.595 -124.009 -72.7522 -28.0069 -68.4839 0 3.18055e-015 -76.1602 -58.1174 -85.252 -179.91 6.96506 89.2614 -44.6378 59.0891 -27.1777 -105.662 6.36111e-015 9.54166e-015 -83.2428 5.52499 32.2222 -8.97903 10.8894 -173.036 -32.906 -3.18055e-015 2.78299e-015 -21.9676 12.8962 -24.2809 90 6.36111e-015 -2.5842e-015 -32.6577 3.89323 -179.396 -51.9362 -1.59028e-015 -1.59028e-015 -32.1836 -11.4759 20.3551 90 0 6.36111e-015 
366.922 135.975 101.37 97.6176 3.08802 -2.2091 -2.71512 -3.74239 -0.335125 -5.46964 -7.46409 -0.85048 -5.46964 -7.46409 -0.85049 -8.30728e-012 -9.0191e-006 -5.27751e-005 17.9472 -18.5373 6.98487 -178.656 8.83981 -98.68 -118.749 -72.8039 -22.7193 -70.6706 3.18055e-015 -0 -75.9615 -57.384 -85.3025 -179.888 9.57223 89.3293 -42.5901 58.6043 -28.0194 -107.811 -9.54166e-015 6.36111e-015 -80.8469 7.57893 33.7972 -6.96707 10.3244 -174.08 -30.4307 -3.18055e-015 -7.95139e-016 -22.5366 11.2146 -20.9351 90 -3.18055e-015 5.01931e-015 -34.3223 6.25986 -177.383 -49.5869 0 -0 -30.2812 -9.25346 16.3657 90 7.95139e-016 -1.59028e-015 
365.379 136.785 101.967 98.5199 2.82889 -3.63868 -2.61568 -4.32781 -0.0564523 -5.25821 -8.64802 -0.312716 -5.25821 -8.64802 -0.312725 -8.30808e-012 -9.0191e-006 -5.27751e-005 17.3489 -16.3341 7.37432 -178.368 9.24498 -100.059 -112.942 -70.024 -17.2081 -69.9399 6.36111e-015 -3.18055e-015 -73.7878 -56.2366 -83.3935 -179.815 10.7434 89.0069 -35.871 57.392 -30.8858 -110.632 3.18055e-015 -3.18055e-015 -78.9792 9.55976 35.7255 -6.12289 10.7733 -174.654 -29.4991 -3.18055e-015 7.95139e-016 -24.4806 9.06283 -16.6728 90 0 -3.97569e-016 -34.9361 8.76292 -175.627 -45.6678 1.59028e-015 -7.95139e-016 -25.4012 -8.21957 14.729 90 -2.78299e-015 -0 
363.836 136.664 102.425 99.2275 2.99196 -4.99769 -2.43537 -4.8178 0.125265 -4.88618 -9.6361 0.0445555 -4.88618 -9.6361 0.0445462 -8.30708e-012 -9.0191e-006 -5.27751e-005 16.7318 -14.5496 7.94117 -178.347 8.63537 -100.88 -109.72 -63.1441 -14.7502 -63.6265 0 -6.36111e-015 -63.0346 -56.8872 -71.0133 -179.61 10.8747 87.936 -25.6623 54.7587 -34.8141 -111.853 0 -6.36111e-015 -79.3143 9.3803 37.6465 -6.2387 11.9603 -174.844 -29.1199 0 -7.95139e-016 -26.026 7.10636 -12.9299 90 0 5.1684e-015 -34.2341 11.4508 -174.267 -40.0728 1.59028e-015 1.59028e-015 -19.1464 -8.20723 15.0514 90 1.19271e-015 6.36111e-015 
362.459 135.403 102.835 100.458 2.99414 -5.79875 -2.51084 -5.10486 0.0753142 -5.04513 -10.2076 -0.0752661 -5.04513 -10.2076 -0.0752755 -8.30788e-012 -9.0191e-006 -5.27751e-005 17.6268 -13.2298 8.49796 -178.409 8.07426 -101.184 -107.592 -54.5197 -13.353 -52.2621 6.36111e-015 9.54166e-015 -39.9078 -49.8685 -43.2118 -179.155 11.707 85.843 -15.6626 51.1129 -39.8293 -102.217 -6.36111e-015 3.97569e-016 -78.9781 8.74821 34.9529 -7.5324 13.2717 -175.274 -28.4132 -1.59028e-015 -3.18055e-015 -26.4338 6.56741 -11.9277 90 3.18055e-015 -1.98785e-015 -33.5129 12.3578 -174.345 -33.9262 6.36111e-015 3.18056e-015 -16.1427 -9.25626 17.3184 90 -1.59028e-015 -6.36111e-015 
360.873 133.07 103.203 100.821 3.03152 -6.66864 -2.48903 -5.43945 -0.0990339 -5.02167 -10.8689 -0.439306 -5.02167 -10.8689 -0.439315 -8.30748e-012 -9.0191e-006 -5.27751e-005 19.0093 -11.4591 8.90082 -178.403 7.19291 -102.553 -101.874 -44.3439 -8.14076 -44.6445 5.96354e-016 6.36111e-015 -20.3917 -26.1443 -15.0808 -178.655 13.0049 84.0447 -12.3439 46.3312 -41.0216 -83.2975 -6.36111e-015 -2.38542e-015 -71.6074 12.7336 32.078 -8.48846 14.6571 -175.001 -27.3357 3.18055e-015 4.77083e-015 -24.424 7.63091 -13.9977 90 0 -6.36111e-015 -31.1469 11.5757 -174.798 -27.7906 3.18056e-015 2.38542e-015 -17.0925 -10.6848 20.2364 90 -1.59028e-015 -0 
359.264 129.75 103.567 100.437 2.68436 -7.67473 -2.22308 -5.38841 -0.320383 -4.50655 -10.7596 -0.857065 -4.50655 -10.7596 -0.857075 -8.30907e-012 -9.0191e-006 -5.27751e-005 18.5039 -10.7268 9.58111 -178.741 5.27406 -103.45 -96.1512 -34.8595 -0.93007 -44.0395 -5.56597e-015 -6.36111e-015 -15.5716 -15.15 -10.6567 -178.89 11.5989 84.4978 -4.19966 37.2778 -44.3754 -72.4126 -3.18055e-015 9.54166e-015 -69.1398 19.6008 44.2063 -9.05784 15.4531 -174.393 -25.3805 3.18055e-015 -0 -21.9837 8.91874 -16.585 90 6.36111e-015 3.97569e-016 -28.0559 8.89986 -175.091 -23.9143 3.18056e-015 1.59028e-015 -18.7882 -11.1391 21.1586 90 0 -0 
